<svg width="180" height="300" viewBox="0 0 40 80"><defs id="SvgjsDefs2535"></defs><g id="SvgjsG2536" featurekey="UFHKJ9-0" transform="matrix(0.6956521739130435,0,0,0.6956521739130435,3.3043478260869565,13.566956561544668)" fill="#f1bbd5"><title xmlns="http://www.w3.org/2000/svg">Sakura</title><g xmlns="http://www.w3.org/2000/svg"><path d="M24,11.36a1.05,1.05,0,0,0,0,2.1A1.05,1.05,0,0,0,24,11.36Z"></path><path d="M21.79,15.49c.44.44,1.07,1.28,1.16,1.39V15.37a3.14,3.14,0,1,1,2.1,0v5.69c.44,1.69.17,2.65.33,2.56C32,21.67,36.36,6,28.17,2.06L25.05,3.93V5.08a1.05,1.05,0,0,1-2.1,0V3.93L19.83,2.06c-3.34,1.59-4.68,5.17-4.47,8.84A20.34,20.34,0,0,1,21.79,15.49Z"></path><path d="M44.25,19.41c-1.17.38-1.19.41-1.41.41a1,1,0,0,1-.31-2l1.08-.36.81-3.54c-2.56-2.71-6.32-2.83-9.78-1.53,0,.21-.11.92-.26,1.6a19.63,19.63,0,0,1-3.12,7.48L32.74,21a3.14,3.14,0,1,1,.64,2c-6.51,2.13-5,1.58-6.17,2.2a8.22,8.22,0,0,1-1.62.61,6.32,6.32,0,0,0,1.24,1.31c3.87,3.88,19,3.68,20.17-5.26Z"></path><path d="M36.2,22a1,1,0,0,0-.33-2,1,1,0,1,0,.33,2Z"></path><path d="M32,35.83a1,1,0,0,0-1.23-1.69A1,1,0,0,0,32,35.83Z"></path><path d="M39.2,31.14c-9.11,1.52-10.86-2.08-8.76.84a3.14,3.14,0,1,1-1.69,1.23l-3.36-4.62a8.43,8.43,0,0,1-1.71-1.93,6.23,6.23,0,0,0-.89,1.61c-2.39,6.35,3,19.06,11.26,17.55l1.42-3.36-.67-.92a1,1,0,0,1,1.69-1.24l.68.93,3.63-.32C42.55,37.66,41.5,33.81,39.2,31.14Z"></path><path d="M22,39.85c-3.24-7.16-.67-9.54-2.78-6.64A3.14,3.14,0,1,1,17.56,32l3.34-4.61a8.3,8.3,0,0,1,1.31-2.24,6.78,6.78,0,0,0-1.76-.33C13.69,24.44,3.22,33.52,7.2,40.91l3.63.32.68-.93a1,1,0,0,1,1.69,1.24l-.67.92L14,45.82c3.67.67,6.75-1.43,8.81-4.52C22.71,41.2,22.08,40,22,39.85Z"></path><path d="M15.82,34.37a1,1,0,0,0,1.69,1.23A1,1,0,0,0,15.82,34.37Z"></path><path d="M11.13,20.71a1,1,0,0,0,2,.65A1,1,0,0,0,11.13,20.71Z"></path><path d="M8,28.79a20.89,20.89,0,0,1,2.56-2.37c4.82-3.86,7.08-2.48,4-3.48a3.15,3.15,0,1,1,.64-2l5.45,1.77a8.58,8.58,0,0,1,2.5.55c0-7.42-13.54-15.83-19.63-9.39l.81,3.54,1.08.36a1,1,0,0,1-.31,2,5.43,5.43,0,0,1-1.41-.41L1,21.8C1.39,24.73,3.41,27.43,8,28.79Z"></path></g></g><g id="SvgjsG2537" featurekey="XAPJzK-0" transform="matrix(1.2422361425777595,0,0,1.2422361425777595,-0.4968944644354082,43.54658373687779)" fill="#ffffff"><path d="M0.4 20 l1.14 -5.6 l4.28 0 l-0.86 -4.28 l-0.68 3.44 l-2.58 0 l1.52 -7.56 l3.48 0 l2.2 10.92 l-5.3 0 l-0.62 3.08 l-2.58 0 z M6.96 20 l-0.46 -2.24 l2.58 0 l0.44 2.24 l-2.56 0 z M13.379999999999999 20 l0 -10.64 l2.52 0 l0 10.64 l-2.52 0 z M10.72 8.52 l0 -2.52 l7.84 0 l0 2.52 l-7.84 0 z M19.759999999999998 20 l1.14 -5.6 l4.28 0 l-0.86 -4.28 l-0.68 3.44 l-2.58 0 l1.52 -7.56 l3.48 0 l2.2 10.92 l-5.3 0 l-0.62 3.08 l-2.58 0 z M26.32 20 l-0.46 -2.24 l2.58 0 l0.44 2.24 l-2.56 0 z M30.080000000000002 12.58 l0 -6.58 l2.52 0 l0 6.58 l-2.52 0 z M30.080000000000002 20 l0 -6.58 l2.52 0 l0 6.58 l-2.52 0 z"></path></g></svg>
