<svg width="500" height="500" viewBox="0 0 40 80"><g xmlns="http://www.w3.org/2000/svg" fill="#f1bbd5"><path d="M20 21.47a.73.73 0 0 0 0 1.46.73.73 0 0 0 0-1.46"/><path d="M18.462 24.343c.306.306.745.89.807.967v-1.05a2.184 2.184 0 1 1 1.461 0v3.957c.306 1.176.118 1.844.23 1.781C25.565 28.642 28.598 17.741 22.9 15l-2.17 1.3v.8a.73.73 0 0 1-1.46 0v-.8L17.098 15c-2.324 1.106-3.256 3.597-3.11 6.15a14.1 14.1 0 0 1 4.473 3.193"/><path d="M34.087 27.07c-.814.264-.828.285-.981.285a.704.704 0 0 1-.216-1.392l.751-.25.564-2.463c-1.781-1.885-4.397-1.968-6.804-1.064 0 .146-.076.64-.18 1.113a13.6 13.6 0 0 1-2.171 5.204l1.03-.327a2.184 2.184 0 1 1 .445 1.391c-4.529 1.482-3.478 1.1-4.292 1.53a5.7 5.7 0 0 1-1.127.425 4.4 4.4 0 0 0 .862.911c2.692 2.7 13.218 2.56 14.032-3.66Z"/><path d="M28.487 28.871a.705.705 0 0 0-.23-1.391.705.705 0 1 0 .23 1.391m-2.922 9.621a.727.727 0 0 0-.856-1.176.727.727 0 0 0 .856 1.176"/><path d="M30.573 35.23c-6.337 1.057-7.554-1.447-6.093.584a2.184 2.184 0 1 1-1.176.856l-2.337-3.214a5.8 5.8 0 0 1-1.19-1.343 4.3 4.3 0 0 0-.62 1.12c-1.662 4.417 2.088 13.26 7.834 12.209l.988-2.338-.466-.64a.73.73 0 0 1 1.175-.862l.473.647 2.526-.223c1.217-2.26.486-4.94-1.114-6.796"/><path d="M18.608 41.289c-2.254-4.981-.466-6.637-1.934-4.62a2.184 2.184 0 1 1-1.154-.841l2.323-3.207a5.8 5.8 0 0 1 .911-1.558 4.7 4.7 0 0 0-1.224-.23c-4.703-.264-11.986 6.052-9.217 11.193l2.525.223.473-.647a.73.73 0 0 1 1.176.862l-.467.64 1.023 2.338c2.553.466 4.696-.995 6.129-3.145-.07-.07-.508-.904-.564-1.008"/><path d="M14.31 37.476a.727.727 0 0 0 1.175.856.727.727 0 0 0-1.176-.856m-3.262-9.502a.731.731 0 0 0 1.39.452.731.731 0 0 0-1.39-.452"/><path d="M8.87 33.595a14.6 14.6 0 0 1 1.78-1.649c3.353-2.685 4.925-1.725 2.783-2.42a2.191 2.191 0 1 1 .445-1.392l3.791 1.231a6 6 0 0 1 1.74.383c0-5.162-9.42-11.012-13.656-6.532l.563 2.462.751.25a.704.704 0 0 1-.215 1.392 3.8 3.8 0 0 1-.981-.285L4 28.732c.271 2.038 1.676 3.917 4.87 4.863"/></g><path d="m0 68.392 1.416-6.957h5.317l-1.068-5.317-.845 4.274H1.615L3.503 51h4.323l2.733 13.566H3.975l-.77 3.826zm8.149 0-.571-2.783h3.205l.546 2.783zm7.975 0V55.174h3.13v13.218zM12.82 54.13V51h9.739v3.13zm11.23 14.26 1.416-6.956h5.317l-1.069-5.317-.844 4.274h-3.205L27.553 51h4.323l2.733 13.566h-6.584l-.77 3.826zm8.149 0-.572-2.782h3.205l.547 2.783zm4.67-9.217V51H40v8.174zm0 9.218v-8.174H40v8.174z" fill="#fff"/></svg>
